<svg width="60" height="60" viewBox="0 0 60 60" fill="none" xmlns="http://www.w3.org/2000/svg">
<rect width="60" height="60" rx="15.2239" fill="#3F3F3F"/>
<mask id="mask0_2_1605" style="mask-type:luminance" maskUnits="userSpaceOnUse" x="13" y="14" width="34" height="32">
<path d="M25.7758 18.2391L20.8505 21.4927C16.2072 24.5601 13.885 26.0942 13.3964 28.4898C13.0429 30.2143 13.7398 31.9011 15.3024 34.4433L39.8648 18.2174C38.1396 15.7826 36.8615 14.4797 35.1366 14.1282C32.7414 13.6376 30.4191 15.1717 25.7758 18.2391ZM33.8651 41.1938L38.7904 37.9402C43.4337 34.8728 45.7559 33.3387 46.2445 30.9431C46.7351 28.5479 45.201 26.2257 42.1336 21.5824C41.7741 21.0381 41.4357 20.5259 41.1144 20.0448L16.493 36.3098C16.8094 36.7941 17.1478 37.3063 17.5073 37.8505C20.5746 42.4939 22.1087 44.8161 24.5043 45.3047C26.8995 45.7953 29.2218 44.2612 33.8651 41.1938Z" fill="white"/>
<path fill-rule="evenodd" clip-rule="evenodd" d="M24.7626 40.1322C24.6008 39.8873 24.543 39.5881 24.6018 39.3005C24.6605 39.0129 24.8312 38.7605 25.0761 38.5987L30.0014 35.345C30.2463 35.1832 30.5454 35.1254 30.833 35.1842C31.1206 35.2429 31.3731 35.4136 31.5349 35.6585C31.6967 35.9034 31.7546 36.2026 31.6958 36.4902C31.637 36.7778 31.4664 37.0302 31.2215 37.192L26.2962 40.4457C26.0513 40.6075 25.7521 40.6653 25.4645 40.6066C25.1769 40.5478 24.9244 40.3772 24.7626 40.1322ZM32.7662 34.8451C32.6044 34.6001 32.5465 34.301 32.6053 34.0134C32.6641 33.7258 32.8347 33.4733 33.0796 33.3115L34.9266 32.0914C35.1715 31.9296 35.4707 31.8717 35.7583 31.9305C36.0459 31.9893 36.2984 32.1599 36.4602 32.4048C36.622 32.6498 36.6798 32.9489 36.6211 33.2365C36.5623 33.5241 36.3917 33.7766 36.1467 33.9384L34.2998 35.1585C34.0548 35.3203 33.7557 35.3782 33.4681 35.3194C33.1805 35.2606 32.928 35.09 32.7662 34.8451Z" fill="black"/>
</mask>
<g mask="url(#mask0_2_1605)">
<path d="M5.28369 24.7014L34.8353 5.17958L54.3572 34.7312L24.8055 54.2531L5.28369 24.7014Z" fill="#F1D017"/>
</g>
</svg>
