<svg width="60" height="60" viewBox="0 0 60 60" fill="none" xmlns="http://www.w3.org/2000/svg">
<rect width="60" height="60" rx="15.2239" fill="#3F3F3F"/>
<path fill-rule="evenodd" clip-rule="evenodd" d="M29.8283 15C26.1893 15 22.8741 16.202 20.9125 17.184C20.7352 17.2727 20.5701 17.3597 20.4162 17.4435C20.1117 17.6094 19.8523 17.7641 19.646 17.9002L21.8776 21.1856L22.9281 21.6037C27.0336 23.6749 32.5392 23.6749 36.6455 21.6037L37.8378 20.985L39.9477 17.9002C39.5107 17.6151 39.0562 17.3576 38.587 17.1293C36.635 16.1577 33.3988 15 29.8291 15M24.6393 18.7188C23.849 18.5709 23.0686 18.375 22.3022 18.1323C24.1398 17.3162 26.8781 16.4501 29.8291 16.4501C31.873 16.4501 33.8056 16.8658 35.404 17.3927C33.5309 17.6561 31.5322 18.1033 29.6277 18.6535C28.1292 19.0869 26.3778 19.0402 24.6393 18.7188ZM37.497 22.7984L37.2988 22.8983C32.7825 25.1766 26.7919 25.1766 22.2756 22.8983L22.0879 22.8033C15.3021 30.248 10.1219 44 29.8283 44C49.5346 44 44.2288 29.9926 37.497 22.7984ZM28.9912 29.5012C28.5639 29.5012 28.1541 29.671 27.8519 29.9731C27.5498 30.2753 27.38 30.6851 27.38 31.1125C27.38 31.5398 27.5498 31.9496 27.8519 32.2518C28.1541 32.5539 28.5639 32.7237 28.9912 32.7237V29.5012ZM30.6025 27.89V27.0843H28.9912V27.89C28.1366 27.89 27.3169 28.2295 26.7126 28.8338C26.1083 29.4381 25.7688 30.2578 25.7688 31.1125C25.7688 31.9671 26.1083 32.7868 26.7126 33.3911C27.3169 33.9954 28.1366 34.3349 28.9912 34.3349V37.5574C28.2903 37.5574 27.6934 37.1103 27.471 36.4835C27.438 36.381 27.3848 36.2861 27.3145 36.2045C27.2442 36.1229 27.1583 36.0562 27.0617 36.0084C26.9652 35.9606 26.8601 35.9326 26.7526 35.9261C26.645 35.9196 26.5373 35.9348 26.4357 35.9707C26.3342 36.0065 26.2408 36.0624 26.1612 36.135C26.0817 36.2076 26.0174 36.2954 25.9724 36.3933C25.9273 36.4911 25.9023 36.597 25.8989 36.7047C25.8955 36.8123 25.9137 36.9196 25.9524 37.0201C26.1747 37.6484 26.5862 38.1925 27.1304 38.5773C27.6746 38.962 28.3247 39.1687 28.9912 39.1687V39.9743H30.6025V39.1687C31.4571 39.1687 32.2768 38.8292 32.8811 38.2248C33.4855 37.6205 33.825 36.8008 33.825 35.9462C33.825 35.0915 33.4855 34.2719 32.8811 33.6675C32.2768 33.0632 31.4571 32.7237 30.6025 32.7237V29.5012C31.3034 29.5012 31.9003 29.9483 32.1227 30.5751C32.1557 30.6776 32.2089 30.7725 32.2792 30.8541C32.3495 30.9358 32.4355 31.0025 32.532 31.0503C32.6285 31.0981 32.7336 31.1261 32.8412 31.1325C32.9487 31.139 33.0564 31.1239 33.158 31.088C33.2596 31.0521 33.3529 30.9962 33.4325 30.9236C33.5121 30.851 33.5763 30.7632 33.6214 30.6654C33.6664 30.5675 33.6914 30.4617 33.6948 30.354C33.6982 30.2463 33.68 30.1391 33.6413 30.0386C33.4191 29.4102 33.0075 28.8662 32.4633 28.4814C31.9191 28.0966 31.269 27.89 30.6025 27.89ZM30.6025 34.3349V37.5574C31.0298 37.5574 31.4396 37.3877 31.7418 37.0855C32.044 36.7833 32.2137 36.3735 32.2137 35.9462C32.2137 35.5189 32.044 35.109 31.7418 34.8069C31.4396 34.5047 31.0298 34.3349 30.6025 34.3349Z" fill="#F1D017"/>
</svg>
