<svg width="35" height="25" viewBox="0 0 35 25" fill="none" xmlns="http://www.w3.org/2000/svg">
<g clip-path="url(#clip0_2_1865)">
<mask id="mask0_2_1865" style="mask-type:luminance" maskUnits="userSpaceOnUse" x="0" y="0" width="34" height="26">
<rect width="34" height="25.5" fill="white"/>
</mask>
<g mask="url(#mask0_2_1865)">
<path fill-rule="evenodd" clip-rule="evenodd" d="M0 0V25.5H34V0H0Z" fill="#F7FCFF"/>
<mask id="mask1_2_1865" style="mask-type:luminance" maskUnits="userSpaceOnUse" x="0" y="0" width="34" height="26">
<path fill-rule="evenodd" clip-rule="evenodd" d="M0 0V25.5H34V0H0Z" fill="white"/>
</mask>
<g mask="url(#mask1_2_1865)">
<path fill-rule="evenodd" clip-rule="evenodd" d="M0 0V8.5H34V0H0Z" fill="#BF2714"/>
<path fill-rule="evenodd" clip-rule="evenodd" d="M0 17V25.5H34V17H0Z" fill="#272727"/>
<path d="M13.0267 10.8589L14.0881 10.9075L13.8216 16.7192L12.7603 16.6706L13.0267 10.8589Z" fill="#C09302"/>
<path d="M14.1357 11.2197L15.1965 11.2797L14.9301 15.9922L13.8693 15.9323L14.1357 11.2197Z" fill="#C09302"/>
<path d="M15.2454 11.5723L16.3044 11.6592L16.0379 14.9062L14.979 14.8193L15.2454 11.5723Z" fill="#C09302"/>
<path d="M20.9736 10.8589L19.9122 10.9075L20.1786 16.7192L21.24 16.6706L20.9736 10.8589Z" fill="#C09302"/>
<path d="M19.8646 11.2197L18.8038 11.2797L19.0702 15.9922L20.131 15.9323L19.8646 11.2197Z" fill="#C09302"/>
<path d="M18.7548 11.5723L17.6959 11.6592L17.9623 14.9062L19.0212 14.8193L18.7548 11.5723Z" fill="#C09302"/>
<path d="M16.9717 16.2843L15.936 16.047L16.3744 14.1338L17.4101 14.3711L16.9717 16.2843Z" fill="#C09302"/>
<path d="M17.7643 16.2843L18.7999 16.047L18.3616 14.1338L17.3259 14.3711L17.7643 16.2843Z" fill="#C09302"/>
<path d="M17.5017 16.2666H16.4392V14.3882H17.5017V16.2666Z" fill="#C09302"/>
<path d="M15.5494 11.5952L16.6115 11.6213L16.5495 14.151L15.4873 14.1249L15.5494 11.5952Z" fill="#C09302"/>
<path d="M17.3969 11.5952L18.4591 11.6213L18.397 14.151L17.3348 14.1249L17.3969 11.5952Z" fill="#C09302"/>
<path d="M14.1716 16.9181L14.4476 15.8921C15.5749 16.1953 16.4406 16.3452 17.0308 16.3452C17.6211 16.3452 18.4867 16.1953 19.6141 15.8921L19.89 16.9181C18.6805 17.2434 17.732 17.4077 17.0308 17.4077C16.3297 17.4077 15.3812 17.2434 14.1716 16.9181Z" fill="#C09302"/>
<path d="M13.0501 10.8615C12.9793 10.1597 13.3901 9.68452 14.0863 9.74512C14.3152 9.76505 14.5724 9.83277 14.9148 9.94896C15.0149 9.98328 15.0149 9.98328 15.1121 10.0177C15.5829 10.1852 15.7107 10.2282 15.7373 10.2339C15.633 10.2102 15.9402 9.6548 16.0107 9.56118C16.019 9.62063 15.9836 9.61216 15.8987 9.59517L14.9403 9.40335L15.6225 8.70343C15.861 8.45878 16.1786 8.33746 16.541 8.33746C16.5786 8.33746 16.6136 8.33571 16.7287 8.32863C16.8139 8.32345 16.8139 8.32345 16.9096 8.31949C17.5726 8.29801 18.048 8.48548 18.048 9.16723C18.048 9.41114 18.0788 9.80336 18.1297 10.1009C18.1468 10.201 18.1798 10.2947 18.0824 10.3359C18.0864 10.3003 18.3186 10.2087 18.6797 10.0577L18.723 10.0396C19.7722 9.60168 19.8948 9.56105 20.233 9.76658C20.4583 9.90355 20.6729 10.1499 20.9134 10.5172L20.0244 11.0992C19.8693 10.8622 19.7458 10.7185 19.687 10.6783C19.8207 10.7712 19.3705 10.9207 19.1323 11.0201L19.0896 11.0379C18.2728 11.3795 18.1651 11.4203 17.9315 11.4203C17.296 11.4203 17.0677 10.7692 17.0053 9.83684C16.8092 10.4824 16.2241 11.2971 15.742 11.2971C15.5309 11.2971 15.6324 11.3305 14.7561 11.0188C14.6643 10.9863 14.6643 10.9863 14.5735 10.9551C14.308 10.8651 14.1165 10.8145 13.9956 10.8037C14.0006 10.798 14.0184 10.7789 14.0384 10.7618L13.0501 10.8615Z" fill="#C09302"/>
</g>
</g>
</g>
<defs>
<clipPath id="clip0_2_1865">
<rect width="34.0909" height="25" rx="3.40909" fill="white"/>
</clipPath>
</defs>
</svg>
