<svg width="60" height="60" viewBox="0 0 60 60" fill="none" xmlns="http://www.w3.org/2000/svg">
<rect width="60" height="60" rx="15.4776" fill="#3F3F3F"/>
<path d="M29.2575 30.163V22.7214H27.1656C24.8484 22.7214 23.6269 21.2189 23.6269 19.759C23.6269 18.2428 24.7501 17.3442 26.2526 17.3442C27.9797 17.3442 29.3276 18.6777 29.3276 20.9104V22.7214H31.6724V20.9104C31.6724 18.6777 33.0203 17.3442 34.7474 17.3442C36.2499 17.3442 37.3869 18.2428 37.3869 19.7584C37.3869 21.2189 36.1229 22.7214 33.8344 22.7214H31.7425V30.1636H41.6415C43.1715 30.1636 44 29.5741 44 28.0717V24.8139C44 23.3258 43.1715 22.722 41.6415 22.722H38.37C39.2404 21.936 39.7598 20.8685 39.7598 19.6608C39.7598 16.9512 37.6115 15 34.8876 15C32.8657 15 31.2231 16.1227 30.5072 18.117C29.7907 16.1233 28.1343 15 26.1124 15C23.4022 15 21.2402 16.9512 21.2402 19.6608C21.2402 20.8685 21.7458 21.936 22.63 22.722H19.3591C17.9124 22.722 17 23.3258 17 24.8139V28.0717C17 29.5741 17.8423 30.1636 19.3585 30.1636L29.2575 30.163ZM29.2575 44.6808V31.6655H19.0075V41.1146C19.0075 43.4593 20.3835 44.6808 22.7283 44.6808H29.2575ZM31.7425 31.6655V44.6808H38.2717C40.6165 44.6808 41.9919 43.4593 41.9919 41.1146V31.6655H31.7425Z" fill="#F1D017"/>
</svg>
