<svg width="163" height="48" viewBox="0 0 163 48" fill="none" xmlns="http://www.w3.org/2000/svg">
<path d="M50.0452 21.3399C50.0452 22.4784 49.7839 23.5237 49.2612 24.4756C48.7386 25.4089 47.936 26.1648 46.8534 26.7434C45.7709 27.322 44.427 27.6113 42.8218 27.6113H39.854V34.6667H35.0664V15.0124H42.8218C44.3896 15.0124 45.7149 15.283 46.7974 15.8243C47.88 16.3656 48.6919 17.1122 49.2332 18.0641C49.7745 19.0161 50.0452 20.108 50.0452 21.3399ZM42.4578 23.8037C43.3724 23.8037 44.0537 23.589 44.5016 23.1597C44.9496 22.7304 45.1736 22.1238 45.1736 21.3399C45.1736 20.5559 44.9496 19.9493 44.5016 19.52C44.0537 19.0907 43.3724 18.8761 42.4578 18.8761H39.854V23.8037H42.4578ZM50.1858 26.8274C50.1858 25.2222 50.4845 23.813 51.0817 22.5998C51.6977 21.3865 52.5283 20.4533 53.5735 19.8C54.6188 19.1467 55.7853 18.8201 57.0732 18.8201C58.1745 18.8201 59.1357 19.0441 59.957 19.492C60.7969 19.94 61.4409 20.5279 61.8888 21.2559V19.0441H66.6764V34.6667H61.8888V32.4549C61.4222 33.1829 60.7689 33.7708 59.929 34.2188C59.1077 34.6667 58.1465 34.8907 57.0452 34.8907C55.776 34.8907 54.6188 34.5641 53.5735 33.9108C52.5283 33.2389 51.6977 32.2963 51.0817 31.083C50.4845 29.8512 50.1858 28.4326 50.1858 26.8274ZM61.8888 26.8554C61.8888 25.6608 61.5529 24.7182 60.8809 24.0276C60.2276 23.337 59.425 22.9917 58.4731 22.9917C57.5212 22.9917 56.7093 23.337 56.0373 24.0276C55.384 24.6996 55.0574 25.6328 55.0574 26.8274C55.0574 28.022 55.384 28.9739 56.0373 29.6832C56.7093 30.3738 57.5212 30.7191 58.4731 30.7191C59.425 30.7191 60.2276 30.3738 60.8809 29.6832C61.5529 28.9926 61.8888 28.05 61.8888 26.8554ZM73.5278 13.9485V34.6667H68.7402V13.9485H73.5278ZM85.6206 34.6667L81.5329 27.2474H80.385V34.6667H75.5974V15.0124H83.6327C85.1819 15.0124 86.4978 15.283 87.5804 15.8243C88.6816 16.3656 89.5029 17.1122 90.0442 18.0641C90.5855 18.9974 90.8561 20.0426 90.8561 21.1999C90.8561 22.5064 90.4828 23.673 89.7362 24.6996C89.0083 25.7262 87.9257 26.4541 86.4885 26.8834L91.0241 34.6667H85.6206ZM80.385 23.8597H83.3528C84.23 23.8597 84.8833 23.645 85.3126 23.2157C85.7606 22.7864 85.9845 22.1798 85.9845 21.3959C85.9845 20.6493 85.7606 20.0613 85.3126 19.632C84.8833 19.2027 84.23 18.9881 83.3528 18.9881H80.385V23.8597ZM107.188 26.6034C107.188 27.0514 107.16 27.518 107.104 28.0033H96.2693C96.344 28.9739 96.6519 29.7205 97.1932 30.2431C97.7532 30.7471 98.4345 30.9991 99.2371 30.9991C100.432 30.9991 101.262 30.4951 101.729 29.4872H106.824C106.563 30.5138 106.087 31.4377 105.397 32.2589C104.725 33.0802 103.875 33.7242 102.849 34.1908C101.822 34.6574 100.674 34.8907 99.405 34.8907C97.8745 34.8907 96.512 34.5641 95.3174 33.9108C94.1228 33.2575 93.1896 32.3243 92.5176 31.111C91.8457 29.8978 91.5097 28.4793 91.5097 26.8554C91.5097 25.2315 91.8363 23.813 92.4896 22.5998C93.1616 21.3865 94.0948 20.4533 95.2894 19.8C96.484 19.1467 97.8558 18.8201 99.405 18.8201C100.917 18.8201 102.261 19.1374 103.437 19.772C104.613 20.4066 105.527 21.3119 106.18 22.4878C106.852 23.6637 107.188 25.0356 107.188 26.6034ZM102.289 25.3435C102.289 24.5223 102.009 23.869 101.449 23.3837C100.889 22.8984 100.189 22.6558 99.349 22.6558C98.5464 22.6558 97.8652 22.8891 97.3052 23.3557C96.7639 23.8223 96.428 24.4849 96.2973 25.3435H102.289ZM128.249 18.8761C130.19 18.8761 131.73 19.464 132.868 20.6399C134.025 21.8158 134.604 23.449 134.604 25.5395V34.6667H129.844V26.1835C129.844 25.1755 129.574 24.4009 129.032 23.8597C128.51 23.2997 127.782 23.0197 126.849 23.0197C125.915 23.0197 125.178 23.2997 124.637 23.8597C124.114 24.4009 123.853 25.1755 123.853 26.1835V34.6667H119.093V26.1835C119.093 25.1755 118.823 24.4009 118.281 23.8597C117.759 23.2997 117.031 23.0197 116.098 23.0197C115.164 23.0197 114.427 23.2997 113.886 23.8597C113.363 24.4009 113.102 25.1755 113.102 26.1835V34.6667H108.314V19.0441H113.102V21.0039C113.587 20.3506 114.222 19.8373 115.006 19.464C115.79 19.0721 116.676 18.8761 117.665 18.8761C118.841 18.8761 119.887 19.128 120.801 19.632C121.734 20.136 122.462 20.8546 122.985 21.7878C123.526 20.9292 124.264 20.2293 125.197 19.688C126.13 19.1467 127.147 18.8761 128.249 18.8761ZM138.96 17.4202C138.12 17.4202 137.43 17.1775 136.888 16.6922C136.366 16.1883 136.105 15.5723 136.105 14.8444C136.105 14.0978 136.366 13.4819 136.888 12.9966C137.43 12.4926 138.12 12.2406 138.96 12.2406C139.782 12.2406 140.453 12.4926 140.976 12.9966C141.517 13.4819 141.788 14.0978 141.788 14.8444C141.788 15.5723 141.517 16.1883 140.976 16.6922C140.453 17.1775 139.782 17.4202 138.96 17.4202ZM141.34 19.0441V34.6667H136.552V19.0441H141.34ZM152.117 30.6071V34.6667H149.681C147.945 34.6667 146.592 34.2468 145.622 33.4069C144.651 32.5483 144.166 31.1577 144.166 29.2352V23.0197H142.262V19.0441H144.166V15.2364H148.953V19.0441H152.089V23.0197H148.953V29.2912C148.953 29.7578 149.065 30.0938 149.289 30.2991C149.513 30.5044 149.886 30.6071 150.409 30.6071H152.117Z" fill="white"/>
<path d="M7.46582 29.2648C7.46582 30.7374 8.65963 31.9312 10.1323 31.9312H16.5317C22.1277 31.9312 26.6642 27.3948 26.6642 21.7987C26.6642 16.2027 22.1277 11.6663 16.5317 11.6663H10.1323C8.65963 11.6663 7.46582 12.8601 7.46582 14.3327C7.46582 15.8053 8.65963 16.9991 10.1323 16.9991H16.5317C19.1825 16.9991 21.3313 19.148 21.3313 21.7987C21.3313 24.4495 19.1825 26.5983 16.5317 26.5983H10.1323C8.65963 26.5983 7.46582 27.7922 7.46582 29.2648Z" fill="#AD9715"/>
<path d="M9.5992 19.1323H16.5319C18.0046 19.1323 19.1984 20.3261 19.1984 21.7988C19.1984 23.2714 18.0046 24.4652 16.5319 24.4652H9.5992C7.24298 24.4652 5.33289 26.3753 5.33289 28.7315V34.0644C5.33289 36.4206 3.42279 38.3307 1.06658 38.3307H0V28.7315C0 23.43 4.29771 19.1323 9.5992 19.1323Z" fill="#D1B725"/>
<path d="M155.652 16.346V12.3278H157.579C157.782 12.3278 157.978 12.3769 158.167 12.4749C158.359 12.5692 158.517 12.7108 158.641 12.8995C158.768 13.0847 158.831 13.3133 158.831 13.5856C158.831 13.8578 158.766 14.0937 158.635 14.2934C158.508 14.4894 158.345 14.64 158.145 14.7453C157.949 14.8505 157.746 14.9032 157.535 14.9032H156.044V14.3532H157.35C157.535 14.3532 157.701 14.2879 157.846 14.1572C157.995 14.0229 158.069 13.8324 158.069 13.5856C158.069 13.3315 157.995 13.15 157.846 13.0411C157.701 12.9322 157.541 12.8778 157.367 12.8778H156.354V16.346H155.652ZM157.993 14.4785L158.995 16.346H158.211L157.236 14.4785H157.993ZM157.127 18.7416C156.524 18.7416 155.96 18.6291 155.434 18.404C154.907 18.179 154.445 17.8668 154.045 17.4676C153.646 17.0683 153.334 16.6055 153.109 16.0792C152.884 15.5529 152.771 14.9885 152.771 14.3859C152.771 13.7834 152.884 13.219 153.109 12.6926C153.334 12.1663 153.646 11.7035 154.045 11.3043C154.445 10.905 154.907 10.5928 155.434 10.3678C155.96 10.1427 156.524 10.0302 157.127 10.0302C157.73 10.0302 158.294 10.1427 158.82 10.3678C159.347 10.5928 159.809 10.905 160.209 11.3043C160.608 11.7035 160.92 12.1663 161.145 12.6926C161.37 13.219 161.483 13.7834 161.483 14.3859C161.483 14.9885 161.37 15.5529 161.145 16.0792C160.92 16.6055 160.608 17.0683 160.209 17.4676C159.809 17.8668 159.347 18.179 158.82 18.404C158.294 18.6291 157.73 18.7416 157.127 18.7416ZM157.127 17.9304C157.78 17.9304 158.374 17.7707 158.907 17.4512C159.445 17.1318 159.873 16.7053 160.192 16.1718C160.512 15.6345 160.671 15.0393 160.671 14.3859C160.671 13.7326 160.512 13.1391 160.192 12.6055C159.873 12.0683 159.445 11.64 158.907 11.3206C158.374 11.0012 157.78 10.8415 157.127 10.8415C156.474 10.8415 155.878 11.0012 155.341 11.3206C154.808 11.64 154.381 12.0683 154.062 12.6055C153.742 13.1391 153.583 13.7326 153.583 14.3859C153.583 15.0393 153.742 15.6345 154.062 16.1718C154.381 16.7053 154.808 17.1318 155.341 17.4512C155.878 17.7707 156.474 17.9304 157.127 17.9304Z" fill="#9FB7B4"/>
</svg>
