<svg width="60" height="60" viewBox="0 0 60 60" fill="none" xmlns="http://www.w3.org/2000/svg">
<rect width="60" height="60" rx="15.2239" fill="#3F3F3F"/>
<path d="M30 15.2239C38.1608 15.2239 44.7761 21.8391 44.7761 30C44.7761 38.1608 38.1608 44.7761 30 44.7761C21.8391 44.7761 15.2239 38.1608 15.2239 30C15.2239 21.8391 21.8391 15.2239 30 15.2239ZM30 35.9104C29.6081 35.9104 29.2323 36.0661 28.9552 36.3432C28.6781 36.6203 28.5224 36.9962 28.5224 37.3881C28.5224 37.7799 28.6781 38.1558 28.9552 38.4329C29.2323 38.71 29.6081 38.8657 30 38.8657C30.3919 38.8657 30.7677 38.71 31.0448 38.4329C31.3219 38.1558 31.4776 37.7799 31.4776 37.3881C31.4776 36.9962 31.3219 36.6203 31.0448 36.3432C30.7677 36.0661 30.3919 35.9104 30 35.9104ZM30 21.8731C28.5794 21.8731 27.217 22.4375 26.2125 23.442C25.208 24.4465 24.6437 25.8089 24.6437 27.2295C24.6437 27.6214 24.7993 27.9972 25.0764 28.2743C25.3535 28.5514 25.7294 28.7071 26.1213 28.7071C26.5132 28.7071 26.889 28.5514 27.1661 28.2743C27.4432 27.9972 27.5989 27.6214 27.5989 27.2295C27.5994 26.7936 27.7185 26.3661 27.9434 25.9928C28.1684 25.6195 28.4907 25.3145 28.8758 25.1105C29.261 24.9064 29.6944 24.811 30.1296 24.8345C30.5648 24.8581 30.9854 24.9996 31.3463 25.244C31.7072 25.4883 31.9947 25.8263 32.1781 26.2217C32.3616 26.6171 32.4339 27.0549 32.3874 27.4883C32.3409 27.9216 32.1774 28.3341 31.9143 28.6816C31.6512 29.0291 31.2985 29.2984 30.894 29.4607C29.8951 29.8596 28.5224 30.8821 28.5224 32.5858V32.9552C28.5224 33.3471 28.6781 33.7229 28.9552 34C29.2323 34.2772 29.6081 34.4328 30 34.4328C30.3919 34.4328 30.7677 34.2772 31.0448 34C31.3219 33.7229 31.4776 33.3471 31.4776 32.9552C31.4776 32.5947 31.5515 32.4144 31.8633 32.2607L31.9918 32.2016C33.1456 31.7375 34.1019 30.8865 34.6969 29.7945C35.292 28.7025 35.4886 27.4375 35.2531 26.2164C35.0176 24.9953 34.3647 23.8942 33.4063 23.1017C32.4478 22.3093 31.2436 21.8749 30 21.8731Z" fill="#F1D017"/>
</svg>
