<svg width="35" height="25" viewBox="0 0 35 25" fill="none" xmlns="http://www.w3.org/2000/svg">
<g clip-path="url(#clip0_2_1823)">
<mask id="mask0_2_1823" style="mask-type:luminance" maskUnits="userSpaceOnUse" x="-2" y="-2" width="37" height="29">
<rect x="-1.13647" y="-1.13623" width="35.3247" height="27.2727" fill="white"/>
</mask>
<g mask="url(#mask0_2_1823)">
<path fill-rule="evenodd" clip-rule="evenodd" d="M-1.13647 -1.13623V26.1365H34.1882V-1.13623H-1.13647Z" fill="#2E42A5"/>
<mask id="mask1_2_1823" style="mask-type:luminance" maskUnits="userSpaceOnUse" x="-2" y="-2" width="37" height="29">
<path fill-rule="evenodd" clip-rule="evenodd" d="M-1.13647 -1.13623V26.1365H34.1882V-1.13623H-1.13647Z" fill="white"/>
</mask>
<g mask="url(#mask1_2_1823)">
<mask id="mask2_2_1823" style="mask-type:luminance" maskUnits="userSpaceOnUse" x="-2" y="-2" width="37" height="29">
<rect x="-1.13647" y="-1.13623" width="35.3247" height="27.2727" fill="white"/>
</mask>
<g mask="url(#mask2_2_1823)">
<path d="M-5.06982 24.1881L2.70347 27.5723L34.3646 2.54315L38.4648 -2.4858L30.1524 -3.61689L17.2386 7.16887L6.84429 14.436L-5.06982 24.1881Z" fill="white"/>
<path d="M-4.00562 26.5596L-0.045481 28.5234L36.9925 -2.95263H31.432L-4.00562 26.5596Z" fill="#F50100"/>
<path d="M38.1216 24.1881L30.3483 27.5723L-1.31282 2.54315L-5.41305 -2.4858L2.89936 -3.61689L15.8132 7.16887L26.2075 14.436L38.1216 24.1881Z" fill="white"/>
<path d="M37.8564 25.8901L33.8963 27.854L18.1252 14.3775L13.4494 12.8718L-5.80749 -2.46824H-0.247002L18.999 12.5077L24.1112 14.3132L37.8564 25.8901Z" fill="#F50100"/>
<mask id="path-10-inside-1_2_1823" fill="white">
<path fill-rule="evenodd" clip-rule="evenodd" d="M20.6961 -3.40869H12.3556V7.95494H-3.31396V17.0459H12.3556V28.4095H20.6961V17.0459H36.4263V7.95494H20.6961V-3.40869Z"/>
</mask>
<path fill-rule="evenodd" clip-rule="evenodd" d="M20.6961 -3.40869H12.3556V7.95494H-3.31396V17.0459H12.3556V28.4095H20.6961V17.0459H36.4263V7.95494H20.6961V-3.40869Z" fill="#F50100"/>
<path d="M12.3556 -3.40869V-5.68142H10.0828V-3.40869H12.3556ZM20.6961 -3.40869H22.9688V-5.68142H20.6961V-3.40869ZM12.3556 7.95494V10.2277H14.6283V7.95494H12.3556ZM-3.31396 7.95494V5.68222H-5.58669V7.95494H-3.31396ZM-3.31396 17.0459H-5.58669V19.3186H-3.31396V17.0459ZM12.3556 17.0459H14.6283V14.7731H12.3556V17.0459ZM12.3556 28.4095H10.0828V30.6822H12.3556V28.4095ZM20.6961 28.4095V30.6822H22.9688V28.4095H20.6961ZM20.6961 17.0459V14.7731H18.4234V17.0459H20.6961ZM36.4263 17.0459V19.3186H38.699V17.0459H36.4263ZM36.4263 7.95494H38.699V5.68222H36.4263V7.95494ZM20.6961 7.95494H18.4234V10.2277H20.6961V7.95494ZM12.3556 -1.13596H20.6961V-5.68142H12.3556V-1.13596ZM14.6283 7.95494V-3.40869H10.0828V7.95494H14.6283ZM-3.31396 10.2277H12.3556V5.68222H-3.31396V10.2277ZM-1.04124 17.0459V7.95494H-5.58669V17.0459H-1.04124ZM12.3556 14.7731H-3.31396V19.3186H12.3556V14.7731ZM14.6283 28.4095V17.0459H10.0828V28.4095H14.6283ZM20.6961 26.1368H12.3556V30.6822H20.6961V26.1368ZM18.4234 17.0459V28.4095H22.9688V17.0459H18.4234ZM36.4263 14.7731H20.6961V19.3186H36.4263V14.7731ZM34.1536 7.95494V17.0459H38.699V7.95494H34.1536ZM20.6961 10.2277H36.4263V5.68222H20.6961V10.2277ZM18.4234 -3.40869V7.95494H22.9688V-3.40869H18.4234Z" fill="white" mask="url(#path-10-inside-1_2_1823)"/>
</g>
</g>
</g>
</g>
<defs>
<clipPath id="clip0_2_1823">
<rect width="34.0909" height="25" rx="3.40909" fill="white"/>
</clipPath>
</defs>
</svg>
